<?xml version="1.0" encoding="UTF-8"?>
<svg data-bbox="-0.007 0.03 588.991 170.921" viewBox="0 0 500.55 172.62" xmlns="http://www.w3.org/2000/svg" data-type="ugc">
    <g>
        <path d="M9.25 105.14a24 24 0 0 1-3.57-1c.2-2.74.44-6.35.64-10.6.14-2.93.26-6.07.38-10.61.18-7.51.13-9.71.23-16.21.22-13.26.8-25.89.8-36.36-.24-6.3-.58-10.33 2-14.49 1.52-2.46 3.46-3.93 6.59-6.43a44.6 44.6 0 0 1 11.62-6.75C32.71.86 36.02-.42 40.49.18A19.65 19.65 0 0 1 51.66 5.8a18.7 18.7 0 0 1 5.5 10c.49 3.07 0 5.79.15 5.81s-.25-6 3.14-11c.74-1.07 3.44-5 8.32-5.8a12.39 12.39 0 0 1 11.3 4.86c4.86 6.48 1.25 16.69 2.2 16.85.38.06.88-2 2.2-5.7a69 69 0 0 1 4.45-10.08c3-5.43 4.48-5.86 5-6 2.55-.52 4.9 1.72 5.1 1.92 3.74 3.68 2.24 10.46 3 10.52s.67-3.7 2.67-7.69c.69-1.38 4.1-8.2 10.36-8.79 2.27-.22 6.24.26 7.84 2.82 1 1.68.48 3.27.63 12.24 0 1.23.06 2.58.47 2.67.75.16 1.29-4.14 4.24-7.38 2.32-2.54 6.49-4.9 10.52-4.08 3.65.75 5.79 3.82 6.94 5.53 6 8.84-.23 15.5 2.16 31.46.25 1.68.86 5.23-.94 6.59-1.3 1-3.69.7-5.23-.42s-2.94-3.37-1.89-18.83c.55-8 1.29-12.27-1.36-14.44a5 5 0 0 0-3.76-1.1c-4.34.83-6.14 9.52-7.22 14.76-2.08 10-.88 15.45-4.71 17.83-.28.18-2.3 1.43-3.93.68-2.66-1.23-2.15-6.89-1.83-16.16.73-20.72-.77-23.27-1.59-23.73l-.16-.07c-1.06-.27-2.65 2.56-3.2 3.55a41.6 41.6 0 0 0-5 14.54 251 251 0 0 0-1.43 25.74c.13 11.93.86 19-2.52 20.46a3.78 3.78 0 0 1-2.72 0c-4.22-1.64-3.57-11.46-3.58-26.93 0-11.85 0-29.77-2.18-30-.44-.05-.76.68-2.93 5.44-4.09 9-6.14 13.54-6.69 15.59-.45 1.7-1 5.14-2.2 12-1 5.68-1.32 8.46-3.45 9.53a5.38 5.38 0 0 1-5.44-.74c-2.25-1.8-2.09-5.12-1.36-13.49a223 223 0 0 0 .31-26.58c-.07-1.66-.24-4.55-1.72-5.12-1.89-.74-4.79 2.66-5.29 3.24-3.93 4.59-4.41 10.28-4.71 15.48-.65 11.33-.41 18.94-.41 18.94.58 19.27.89 32.79-4.3 34.91-1.35.55-4.37.86-5.64-.59a3.5 3.5 0 0 1-.63-2.62c1.38-15.84.14-31.81.63-47.71s-1.18-21-4.83-24.09a15.3 15.3 0 0 0-8.46-3.21c-10.47-1-18.3 8.24-18.83 8.89a14 14 0 0 0-1.24 1.76c-3.48 5.58-3.19 11.4-3.09 14.72.21 6.56.06 14.54-.26 24.49 1.65 37.47.52 48-1.33 48.22a19 19 0 0 1-3.48-.35" fill="#dc6422"/>
        <path d="M1.45 117.92a3.3 3.3 0 0 1 2-.27c1.39.05 3.36.09 5.81 0 4.45-.16 25 .08 33.49.27 19.74.43 22.62 4.86 43.73 6.78a190.8 190.8 0 0 0 48.26-2.12s35.7-5.77 51.94-.21c.66.22 2.49.85 2.9 2.29a3.22 3.22 0 0 1-1 3c-2.22 2-7.23 0-8.27-.43-11.3-4.26-53.33 1.48-93.69 7-16.69 2.28-25.21 3.46-34.13 5.51-12.11 2.78-38.23 8.79-44.3 14.2-.47.42-2.33 2.17-4 1.7a3.77 3.77 0 0 1-2.33-3.82c.3-2.72 4.55-4.29 6.78-5.09 16.24-5.8 24.36-8.7 27.77-9.32 11.31-2.08 32.17-4.87 35.4-5.3 4.67-.62 8-1 8.05-1.91.1-1.89-15.5-4.63-28.19-5.72-14.69-1.27-33.48-1-39.22-.43-3.28.34 8-.27-6.35.19-3.57.11-4.57.16-5.3-.61-1.35-1.42-.92-4.73.65-5.71" fill="#ffebbe"/>
        <path d="M149.55 157.07a3.6 3.6 0 0 0 1.27-2.54c.72-4.79-.55-9.14-1.06-14.63 0-.23 0 .07-.21-4.24-.5-9.95-.72-12.63.43-16.21.61-1.93 1-3.11 2.12-4.24 2.06-2.07 5.18-2.52 9.11-3.07.9-.13 2.08-.26 3.61-.43 2-.22 3.67-.37 4.23-.42 4-.35 8.95-.28 11-.24 7.42.56 9.22-.47 9.56-1.45.62-1.77-3.27-3.93-13.48-13.57-4.52-4.27-6.05-5.73-6.05-5.73-4.94-4.73-6.37-6.21-9.21-8-1.23-.78-.74-.36-4.78-2.68-5.18-3-5.24-3.25-7.1-4-2.78-1.17-4.3-1.28-4.34-2 0-.28.14-.81 4.24-2.76 3.45-1.64 4.2-1.83 4.66-2.76a4.21 4.21 0 0 0-.85-4.45c-2.36-2.47-7.38-.47-8.05-.21-1.91.76-1.6 1.22-3.39 1.91-1.06.41-2.26.66-8.27.42-3.51-.14-4.08-.26-5.51 0-1.08.2-4.84.91-5.09 2.76-.15 1.13 1 2.37 2.12 3 1.49.8 2.39 0 6.57.21a4.7 4.7 0 0 1 2.86.95c.29.24 1 .82.85 1.27s-1.34.72-5.62.75-4.22-.19-5.51 0c-.76.1-6.26.88-6.57 3.18a2.74 2.74 0 0 0 1.7 2.54c1.24.53 2-.41 5.3-1.27a16.6 16.6 0 0 1 4.87-.64c1 0 3.07.09 3.18.64.19.93-5.63 1.27-9.54 5.08-4.43 4.33-1.36 8.49-5.3 11.88-2.51 2.15-7.29 2-16.85 1.8a11 11 0 0 1-3.71-.74c-2.34-.93-5.11-3-4.77-4.35s3.14-1.88 6.79-1.59c1.26-1.19 2-2.63 1.58-3.6-.52-1.22-2.64-1.25-4.45-1.28a8.86 8.86 0 0 0-5.08 1.06 6.9 6.9 0 0 0-3.4 4.46c-.49 2.82 1.48 5.15 2.12 5.93 1.37 1.65 2.12 1.35 3 2.76 1.56 2.58.32 5.87.21 6.14-1.05 2.71-2.82 2.65-5.4 5.62a17.7 17.7 0 0 0-4 7.95 15 15 0 0 0 1.61 10.11 6.82 6.82 0 0 0 3.65 3.41c1.67.55 4.18.44 4.83-.79.84-1.59-2.29-3.39-3.4-8.54a10.9 10.9 0 0 1-.31-3.94c.74-5.58 6.5-8.34 7.05-8.59 1.39-.64 4.47-2 6.36-.63 1.55 1.15 1.51 3.6 1.48 4.66-.06 3.27-1.71 4.11-3.32 9.33-1.07 3.45-.87 4.78-.72 5.44a8 8 0 0 0 2.87 4.38c.86.68 2.69 2.14 4.17 1.47s1.56-2.61 1.59-2.87c.18-1.85-.94-2.48-1.41-4.39-.54-2.23.27-4.18 1.41-6.89 1.4-3.35 2.47-3.55 3-6.11s-.45-3.15.23-4.23c1.82-2.91 9.94-.92 13.43.27a19.4 19.4 0 0 1 7.42 4.45c1.33 1.3 2.15 2.12 2.33 3.39s-.3 2.88-4.87 7.42-5.71 4.51-7.85 7.42a26.7 26.7 0 0 0-3.6 7.42c-1.7 4.68-2.86 7.88-1.27 10 1.06 1.39 3.26 2.17 4.66 1.48s1.18-2.56 2.33-6.78a28.6 28.6 0 0 1 4.27-9.59c.89-1.22.56-.5 4.29-4.77a31 31 0 0 1 4.16-4.29c1.86-1.51 3.45-2.81 4.45-2.33s.82 2.92.64 7.2c0 0-.24 5.87.21 12.72.59 8.92 2.27 10.32 3.18 10.81s2.35.84 3.34.15" fill="#6f3226"/>
        <path d="M138.21 79.49c-1.77 2-.55 6.46.32 8.59 1.38 3.36 3.08 3.74 3.18 6.36 0 .95-.51 2.56-1.59 5.72-1.23 3.59-1.62 4.2-1.27 4.77.94 1.54 5.62.12 8.9-.64 14.48-3.31 24 1.45 25.44-1.91.6-1.38-.76-3.16-3.5-6.67-3-3.8-9.35-11.75-21-15.58-3.58-1.19-8.52-2.81-10.48-.64" fill="#ffffff"/>
        <path fill="#fff4de" d="M236.85 6.245v153.06a3.815 3.815 0 1 1-7.63 0V6.245a3.815 3.815 0 1 1 7.63 0"/>
        <text transform="translate(249.68 49.94)" fill="#6f3226" font-size="55.03" stroke="#6f3226" stroke-miterlimit="10" font-family="AgencyGothicCT-Condensed,Agency Gothic CT">MOHAMMED<tspan y="54.44" x="0">MUTLAK</tspan><tspan y="108.88" x="0">CAMP</tspan></text>
    </g>
</svg>
